<svg width="157" height="157" viewBox="0 0 157 157" fill="none" xmlns="http://www.w3.org/2000/svg">
<path d="M0 16C0 7.16344 7.16344 0 16 0H141C149.837 0 157 7.16344 157 16V141C157 149.837 149.837 157 141 157H16C7.16344 157 0 149.837 0 141V16Z" fill="#1C2E5E"/>
<path d="M101.3 36.3636H98.45V31H92.75V36.3636H64.25V31H58.55V36.3636H55.7C52.565 36.3636 50 38.7773 50 41.7273V84.6364C50 87.5864 52.565 90 55.7 90H101.3C104.435 90 107 87.5864 107 84.6364V41.7273C107 38.7773 104.435 36.3636 101.3 36.3636ZM101.3 84.6364H55.7V49.7727H101.3V84.6364Z" fill="white"/>
</svg>
