<svg width="24" height="25" viewBox="0 0 24 25" fill="none" xmlns="http://www.w3.org/2000/svg">
<path d="M21.1754 13.675C21.2268 13.3 21.2525 12.9125 21.2525 12.5C21.2525 12.1 21.2268 11.7 21.1626 11.325L23.7713 9.35C24.0026 9.175 24.0668 8.8375 23.9255 8.5875L21.4581 4.4375C21.3039 4.1625 20.9827 4.075 20.6999 4.1625L17.6286 5.3625C16.9861 4.8875 16.305 4.4875 15.5468 4.1875L15.0842 1.0125C15.0328 0.7125 14.7758 0.5 14.4673 0.5H9.53266C9.22425 0.5 8.98008 0.7125 8.92868 1.0125L8.46605 4.1875C7.70786 4.4875 7.01392 4.9 6.38424 5.3625L3.31292 4.1625C3.0302 4.0625 2.70893 4.1625 2.55472 4.4375L0.100236 8.5875C-0.0539726 8.85 -0.00256984 9.175 0.254445 9.35L2.86314 11.325C2.79889 11.7 2.74748 12.1125 2.74748 12.5C2.74748 12.8875 2.77319 13.3 2.83744 13.675L0.228743 15.65C-0.00256982 15.825 -0.0668233 16.1625 0.0745346 16.4125L2.54187 20.5625C2.69608 20.8375 3.01735 20.925 3.30006 20.8375L6.37139 19.6375C7.01392 20.1125 7.69501 20.5125 8.4532 20.8125L8.91583 23.9875C8.98008 24.2875 9.22425 24.5 9.53266 24.5H14.4673C14.7758 24.5 15.0328 24.2875 15.0713 23.9875L15.5339 20.8125C16.2921 20.5125 16.9861 20.1125 17.6158 19.6375L20.6871 20.8375C20.9698 20.9375 21.2911 20.8375 21.4453 20.5625L23.9126 16.4125C24.0668 16.1375 24.0026 15.825 23.7584 15.65L21.1754 13.675ZM12 17C9.45556 17 7.37374 14.975 7.37374 12.5C7.37374 10.025 9.45556 8 12 8C14.5444 8 16.6263 10.025 16.6263 12.5C16.6263 14.975 14.5444 17 12 17Z" fill="white"/>
</svg>
